<?xml version="1.0" encoding="UTF-8" standalone="no"?>
<svg
   version="1.1"
   width="24"
   height="24"
   id="svg3"
   sodipodi:docname="inquiry.svg"
   inkscape:version="1.3.2 (091e20e, 2023-11-25, custom)"
   xmlns:inkscape="http://www.inkscape.org/namespaces/inkscape"
   xmlns:sodipodi="http://sodipodi.sourceforge.net/DTD/sodipodi-0.dtd"
   xmlns="http://www.w3.org/2000/svg"
   xmlns:svg="http://www.w3.org/2000/svg">
  <defs
     id="defs3" />
  <sodipodi:namedview
     id="namedview3"
     pagecolor="#ffffff"
     bordercolor="#000000"
     borderopacity="0.25"
     inkscape:showpageshadow="2"
     inkscape:pageopacity="0.0"
     inkscape:pagecheckerboard="0"
     inkscape:deskcolor="#d1d1d1"
     inkscape:zoom="9.484375"
     inkscape:cx="10.701812"
     inkscape:cy="39.011532"
     inkscape:window-width="1920"
     inkscape:window-height="991"
     inkscape:window-x="-9"
     inkscape:window-y="-9"
     inkscape:window-maximized="1"
     inkscape:current-layer="svg3" />
  <g
     id="g3"
     transform="translate(1.2633149,0.36271942)">
    <path
       d="m 8.8937376,-0.36049859 c 0.1632198,1.4754e-4 0.3263997,-9.5412e-4 0.4896146,-0.002137 1.8507668,-0.005221 3.7167278,0.30742976 5.4033348,1.09359517 0.03267,0.0150181 0.06532,0.0300361 0.09897,0.0455093 1.775555,0.82403382 3.201774,2.29033122 3.91373,4.12681092 0.322173,0.8892194 0.545561,1.8716796 0.487885,2.8200693 -0.0057,0.1401829 -0.01076,0.2803809 -0.01579,0.4205898 -0.0042,0.096156 -0.0096,0.1922655 -0.01625,0.2882791 -0.05554,0.5274551 -0.05554,0.5274551 0.125147,1.000475 0.177012,0.1498858 0.373419,0.246446 0.585026,0.3376313 0.210262,0.099168 0.381311,0.2652487 0.555693,0.4166997 0.03757,0.0315 0.07512,0.063 0.113822,0.09545 0.990994,0.856461 1.579442,2.014732 1.890894,3.275025 0.0084,0.03308 0.01672,0.06615 0.02534,0.10023 0.422762,1.770054 0.109811,3.861765 -0.803989,5.419221 -0.155896,0.252432 -0.334614,0.480748 -0.526744,0.706572 -0.03793,0.04514 -0.07584,0.09027 -0.114913,0.136779 -0.374891,0.43054 -0.802638,0.776191 -1.283726,1.080338 0.244679,0.694353 0.554879,1.267999 0.982508,1.866637 0.462753,0.650116 0.462753,0.650116 0.462753,0.754846 -0.329034,0.0048 -0.658057,0.0081 -0.987118,0.01029 -0.111533,9.32e-4 -0.223063,0.0022 -0.334589,0.0038 -1.434294,0.02052 -2.750495,-0.2551 -3.843753,-1.261518 -0.138742,-0.08554 -0.216635,-0.0686 -0.377375,-0.04945 -0.463823,0.04405 -0.926436,0.04433 -1.392082,0.04462 -0.04645,3.2e-5 -0.09289,6.3e-5 -0.140744,9.6e-5 -0.727137,-7.84e-4 -1.437586,-0.02449 -2.155355,-0.152236 -0.04542,-0.008 -0.09086,-0.01607 -0.137655,-0.02434 -1.447582,-0.266417 -2.7862336,-0.797119 -3.9183975,-1.75452 -0.037801,-0.03108 -0.075603,-0.06215 -0.11455,-0.09417 -0.9196575,-0.786728 -1.4708053,-1.893896 -1.7969229,-3.042245 -0.028366,0.01593 -0.056733,0.03186 -0.085958,0.04828 -1.0806232,0.599968 -2.129093,1.039305 -3.3873284,1.032977 -0.075267,-9.9e-5 -0.075267,-9.9e-5 -0.1520541,-2e-4 -0.1591125,-2.61e-4 -0.3182218,-8.48e-4 -0.4773333,-0.0014 -0.108358,-2.35e-4 -0.2167161,-4.49e-4 -0.3250742,-6.4e-4 -0.2646133,-5.14e-4 -0.5292249,-0.0013 -0.79383679,-0.0023 0.0657954,-0.180499 0.15006178,-0.334603 0.25241059,-0.496831 0.047198,-0.07549 0.047198,-0.07549 0.095349,-0.152494 0.016508,-0.0263 0.033017,-0.0526 0.050026,-0.0797 0.3948977,-0.631033 0.7404858,-1.255658 1.0037677,-1.953896 0.014547,-0.03838 0.029095,-0.07675 0.044084,-0.116288 0.012917,-0.03579 0.025834,-0.07158 0.039144,-0.108447 0.011543,-0.03176 0.023086,-0.06352 0.034978,-0.09624 0.028623,-0.09593 0.028623,-0.09593 -0.027875,-0.226141 -0.088754,-0.06786 -0.1806422,-0.131629 -0.2739,-0.1931 -1.75912106,-1.190218 -2.75448095,-2.932337 -3.1777146,-4.9955567 -0.2106232,-1.1680017 -0.2052475,-2.5461744 0.04826,-3.7056611 0.00775,-0.037926 0.015505,-0.075852 0.023493,-0.1149276 C -0.63781113,4.197865 0.46840648,2.5109258 2.1051493,1.3951197 3.3411236,0.58534457 4.7222611,0.11879383 6.1646618,-0.1467572 6.2147268,-0.1560612 6.2647922,-0.1653657 6.3163746,-0.174952 7.1726454,-0.32420864 8.0259808,-0.36211747 8.8937375,-0.36048648 Z M 2.4128203,3.6277957 c -1.0454034,1.0334804 -1.69405148,2.5048 -1.71461229,3.9874722 -2.0494e-4,0.033132 -4.0988e-4,0.066265 -6.2104e-4,0.1004009 -3.2702e-4,0.035525 -6.5403e-4,0.071051 -9.9096e-4,0.1076525 -8.1154e-4,0.1140031 -0.001112,0.2279948 -0.001194,0.3420006 -3.146e-5,0.038905 -6.291e-5,0.07781 -9.533e-5,0.1178934 7.3019e-4,0.5674899 0.0154175,1.1162098 0.15161453,1.6697475 0.007504,0.032435 0.0150094,0.064869 0.0227416,0.098287 0.19507179,0.822619 0.56374759,1.587264 1.09616939,2.242323 0.029726,0.03661 0.029726,0.03661 0.060052,0.07397 0.6865566,0.828901 1.5971128,1.336741 2.55074,1.798521 -0.023309,0.356954 -0.093334,0.690239 -0.1835713,1.03572 -0.01235,0.04833 -0.0247,0.09667 -0.037425,0.146471 -0.023931,0.09361 -0.047987,0.187193 -0.072185,0.280736 -0.043165,0.167478 -0.084907,0.335284 -0.1264102,0.503185 0.6658739,-0.308288 1.3964076,-0.765797 1.7869181,-1.413452 0.077934,-0.08454 0.077934,-0.08454 0.1967633,-0.09516 0.045885,0.0059 0.091769,0.01171 0.1390443,0.01775 0.075362,0.009 0.075362,0.009 0.1522477,0.01808 0.1688923,0.02443 0.3376086,0.04978 0.5062781,0.0757 1.4405744,0.206887 3.0601565,0.216041 4.4916698,-0.0541 0.05049,-0.0093 0.100994,-0.0186 0.153022,-0.02818 1.555889,-0.295665 2.972804,-0.83441 4.136137,-1.937929 0.03552,-0.03265 0.07104,-0.06529 0.107629,-0.09893 0.966154,-0.919671 1.5053,-2.32538 1.575766,-3.6467234 0.0026,-0.0972 0.0039,-0.1943049 0.0045,-0.2915377 2.65e-4,-0.035916 5.3e-4,-0.071833 8.04e-4,-0.1088375 4.38e-4,-0.075768 7.44e-4,-0.1515364 9.25e-4,-0.2273052 4.48e-4,-0.1128875 0.0019,-0.2257333 0.0034,-0.3386113 C 17.423325,6.3445516 16.852716,4.835259 15.70163,3.6391673 12.764498,0.69319574 5.9676847,0.72417957 2.4128203,3.6277957 Z M 18.796118,11.357329 c -0.01815,0.04822 -0.0363,0.09643 -0.05499,0.146105 -0.720362,1.862027 -2.154593,3.309098 -3.963185,4.130182 -1.838612,0.808964 -3.752501,1.051489 -5.7402349,1.086636 -0.1072961,0.002 -0.2145919,0.0041 -0.3218873,0.0061 -0.260815,0.005 -0.5216331,0.0097 -0.7824546,0.01436 0.074107,0.330861 0.1542897,0.638349 0.3117798,0.93917 0.024447,0.04754 0.024447,0.04754 0.049387,0.09604 0.6497102,1.232645 1.764925,1.915099 3.054207,2.318998 0.22782,0.06741 0.457544,0.120834 0.690214,0.168414 0.05185,0.01061 0.05185,0.01061 0.10475,0.02143 0.71025,0.134901 1.411812,0.171371 2.133071,0.168745 0.04379,-2.3e-5 0.08758,-4.6e-5 0.1327,-7e-5 0.607926,-9.8e-4 1.201269,-0.0243 1.802813,-0.119703 0.0356,-0.0056 0.07121,-0.0112 0.107891,-0.01697 0.111416,-0.01921 0.111416,-0.01921 0.269632,-0.06696 0.178496,0.0021 0.195698,0.01983 0.316515,0.140985 0.055,0.06293 0.108939,0.126793 0.1619,0.191455 0.214859,0.253854 0.428118,0.463032 0.702233,0.652445 0.03077,-0.01545 0.06154,-0.0309 0.09324,-0.04681 -0.09231,-0.401649 -0.18462,-0.803297 -0.279727,-1.217117 0.09231,-0.0309 0.18462,-0.06179 0.279727,-0.09362 0.543894,-0.242747 1.042334,-0.544998 1.491881,-0.936244 0.03757,-0.03247 0.07512,-0.06493 0.113822,-0.09838 0.789182,-0.735911 1.237822,-1.84679 1.293069,-2.91702 0.02503,-1.462436 -0.0983,-2.817562 -1.153387,-3.939505 -0.356111,-0.404808 -0.356111,-0.404808 -0.812959,-0.628673 z"
       fill="#000000"
       id="path1"
       style="stroke-width:0.0467166" />
    <path
       d="m 10.632475,3.6181384 c 0.595944,0.4478471 1.043856,1.0456612 1.170449,1.794041 0.0479,0.5451431 0.05551,1.090487 -0.186485,1.5916148 -0.02966,0.064266 -0.02966,0.064266 -0.05992,0.1298307 -0.215599,0.4305525 -0.504657,0.7823458 -0.861765,1.1006353 -0.03996,0.03678 -0.07991,0.073559 -0.121072,0.1114533 -0.07984,0.072959 -0.16133,0.1441677 -0.244557,0.2132149 -0.4201614,0.3877097 -0.307547,0.5400898 -0.3444351,1.2067856 -0.6307859,0 -1.261572,0 -1.9114728,0 C 8.0495297,8.6952401 8.1372622,8.0925909 8.8643262,7.2881418 8.9533176,7.1968956 9.0450445,7.1148728 9.142597,7.0330518 9.4259914,6.792448 9.8052092,6.4373445 9.860492,6.0520071 9.8659632,5.7031664 9.7980122,5.5179804 9.5592747,5.257114 9.3358734,5.1254502 9.1027683,5.0605528 8.8437472,5.1036943 8.5728506,5.1867946 8.3751361,5.2986738 8.2247403,5.5467645 8.1532096,5.711214 8.1532096,5.711214 8.1198424,5.9739258 c -0.6307861,0 -1.2615722,0 -1.911473,0 0,-0.7973796 0.2266214,-1.4189189 0.776718,-1.9997587 C 7.9699277,3.0100572 9.4814003,2.8565288 10.632475,3.6181384 Z"
       fill="#000000"
       id="path2"
       style="stroke-width:0.0467166" />
    <path
       d="m 8.0732211,11.076456 c 0.4601084,-0.0014 0.4601084,-0.0014 0.929512,-0.0029 0.096934,-4.26e-4 0.1938678,-8.52e-4 0.2937392,-0.0013 0.07637,-1.36e-4 0.1527408,-2.56e-4 0.2291113,-3.54e-4 0.06004,-3.59e-4 0.06004,-3.59e-4 0.1212939,-7.26e-4 0.09708,-1.4e-5 0.1941579,0.0024 0.2911953,0.0053 0.046621,0.04681 0.046621,0.04681 0.051914,0.224015 -1.19e-5,0.07899 -2.719e-4,0.157984 -7.4e-4,0.236975 -4.68e-5,0.03676 -9.46e-5,0.07353 -1.424e-4,0.111402 -2.45e-4,0.137864 -8.953e-4,0.275727 -0.00149,0.41359 -9.62e-4,0.307995 -0.00189,0.61599 -0.00289,0.933318 -0.6307859,0 -1.2615721,0 -1.9114728,0 0,-0.633369 0,-1.266738 0,-1.9193 z"
       fill="#000000"
       id="path3"
       style="stroke-width:0.0467166" />
  </g>
</svg>
