<?xml version="1.0" encoding="UTF-8" standalone="no"?>
<!-- Created with Inkscape (http://www.inkscape.org/) -->

<svg
   width="210.686"
   height="140"
   viewBox="0 0 55.744006 37.041665"
   version="1.1"
   id="svg1"
   inkscape:export-filename="logo.png"
   inkscape:export-xdpi="96"
   inkscape:export-ydpi="96"
   inkscape:version="1.3.2 (091e20e, 2023-11-25, custom)"
   sodipodi:docname="move_it_logo - Copy (2).svg"
   xmlns:inkscape="http://www.inkscape.org/namespaces/inkscape"
   xmlns:sodipodi="http://sodipodi.sourceforge.net/DTD/sodipodi-0.dtd"
   xmlns="http://www.w3.org/2000/svg"
   xmlns:svg="http://www.w3.org/2000/svg">
  <sodipodi:namedview
     id="namedview1"
     pagecolor="#ffffff"
     bordercolor="#000000"
     borderopacity="0.25"
     inkscape:showpageshadow="2"
     inkscape:pageopacity="0.0"
     inkscape:pagecheckerboard="0"
     inkscape:deskcolor="#d1d1d1"
     inkscape:document-units="mm"
     inkscape:export-bgcolor="#ffffffff"
     inkscape:zoom="2.7580808"
     inkscape:cx="106.95843"
     inkscape:cy="30.818532"
     inkscape:window-width="1920"
     inkscape:window-height="991"
     inkscape:window-x="-9"
     inkscape:window-y="-9"
     inkscape:window-maximized="1"
     inkscape:current-layer="g1" />
  <defs
     id="defs1" />
  <g
     inkscape:label="Layer 1"
     inkscape:groupmode="layer"
     id="layer1">
    <g
       id="g3"
       transform="matrix(1.2298686,0,0,1.2298686,-61.548232,136.20362)"
       inkscape:label="group">
      <g
         id="g1"
         transform="matrix(0.28000002,0,0,0.28000002,36.032082,-79.737461)">
        <g
           id="g2"
           transform="translate(-1.2822486e-4,-1.7975358e-5)">
          <g
             id="Wire-8"
             opacity="1"
             inkscape:label="delivery man"
             transform="matrix(0.19952268,0,0,0.19952268,85.372141,-191.57814)"
             style="display:inline">
            <path
               id="STROKE_04de42fb-b328-49cf-a333-235418a3f021-3-3"
               opacity="1"
               fill="none"
               stroke="#fc6932"
               stroke-width="3.156"
               stroke-opacity="1"
               stroke-linecap="round"
               stroke-linejoin="round"
               d="m -39.635522,782.93555 c 4.331246,7.33582 21.093798,44.43377 21.722252,53.25498 1.106521,11.96295 -0.860771,23.63459 -4.82121,34.75129 -4.978206,14.22149 -9.014259,28.92898 -13.138127,43.41384 l -13.899851,1.7041 c 0.797814,-12.41157 1.540136,-24.83056 2.647076,-37.22257 0.586062,-10.50503 4.070334,-21.67467 1.343348,-32.032 -1.585162,-8.35236 -7.155259,-12.22867 -11.070127,-18.18799 l -3.33965,-9.26839 c 0.863858,3.52901 2.261103,6.93317 3.570673,10.35676 1.610881,4.21131 3.089102,8.45203 3.278716,12.99073 -0.696273,8.8494 -6.775293,15.8745 -11.554339,22.92021 -10.110622,17.18214 -21.415944,33.11436 -32.821393,48.66061 -0.296395,0.5473 -8.529576,12.5908 -8.324876,12.45059 l -15.92865,-0.73832 c 3.55057,-9.55132 10.59828,-23.14012 15.48847,-32.10164 3.96456,-7.88099 8.33504,-15.55267 13.45393,-22.74666 2.635576,-4.49754 6.645506,-8.35374 7.731473,-13.60956 l 3.257122,2.71479 c -4.815764,-4.27429 -9.352792,-8.85594 -14.275457,-13.00804 -9.126668,-6.96389 -31.938258,-47.16104 -37.162718,-57.20069"
               style="fill:#08b355;fill-opacity:1;stroke:#000000;stroke-opacity:1"
               sodipodi:nodetypes="cccccccccsccccccccccc"
               inkscape:label="lower body" />
            <path
               id="STROKE_02fd1402-3b27-4713-add7-7f2a85dfcf28-4-1"
               opacity="1"
               fill="none"
               stroke="#fc6932"
               stroke-width="2.83043"
               stroke-opacity="1"
               stroke-linecap="round"
               stroke-linejoin="round"
               d="m -122.08136,926.3394 c 3.83251,0.0309 7.66883,-0.0263 11.48636,0.34438 4.4436,0.0832 9.43712,-0.54405 13.605972,1.27872 6.535278,2.24363 13.191448,2.69366 19.765883,4.75776 2.057855,0.77783 4.453178,1.9228 5.211669,4.14714 0.309651,2.59049 -2.548735,3.89372 -4.687625,4.19104 -6.218565,1.4194 -12.643167,1.16994 -18.97191,1.53805 -5.960679,0.13089 -11.951379,0.48038 -17.896719,-0.0858 -3.80868,-0.52201 -7.98456,-1.24478 -10.26754,-4.58847 -1.68162,-3.12137 -0.69672,-6.89407 0.78193,-9.95404 0.35161,-0.39931 0.62037,-1.2295 0.97198,-1.62879 z"
               style="fill:#aa4400;fill-opacity:1;stroke:#000000;stroke-opacity:1"
               sodipodi:nodetypes="scccccccccss"
               inkscape:label="right shoe" />
            <path
               id="STROKE_be42ccdc-f92c-43fa-85b7-d0dd3d01480e-7-6"
               opacity="1"
               fill="none"
               stroke="#fc6932"
               stroke-width="3.059"
               stroke-opacity="1"
               stroke-linecap="round"
               stroke-linejoin="round"
               d="m -51.378315,924.83919 c -0.35391,-0.65447 -1.081776,-3.1531 -0.686299,-4.88485 0.241272,-1.05651 0.640926,-2.06774 1.344616,-2.91198 0.206515,-0.27516 0.417838,-0.54668 0.630907,-0.81679 l 0.259936,0.0875 c 4.128128,-0.61505 8.225717,-1.43424 12.373965,-1.91407 0.746317,-0.0957 1.49298,-0.18893 2.240757,-0.27257 l 0.241465,0.10189 c 6.923349,1.68884 17.997025,2.6519 25.046144,3.7012 4.240703,0.68049 8.6574088,1.29334 12.3954847,3.55862 1.6169619,0.92408 3.0841218,3.12949 1.5507595,4.7868 -2.2657269,2.28904 -5.6630763,2.43375 -8.6391083,3.03059 -9.0652029,1.09505 -18.3060079,1.01226 -27.3923199,0.73694 -4.620324,-0.25859 -9.521479,0.11544 -13.962922,-1.3513 -2.969407,-1.01659 -4.339706,-2.08276 -5.403385,-3.85197 z"
               style="fill:#aa4400;fill-opacity:1;stroke:#000000;stroke-opacity:1"
               sodipodi:nodetypes="csccccccccccccc"
               inkscape:label="left shoe" />
            <path
               id="STROKE_8f6768be-21f0-4422-8f29-e94bb4f2be4b-3-9"
               opacity="1"
               fill="none"
               stroke="#fc6932"
               stroke-width="3.189"
               stroke-opacity="1.000"
               stroke-linecap="round"
               stroke-linejoin="round"
               d="m -68.363665,784.65388 c -10.695294,3.28865 -20.866495,8.47871 -29.534128,15.5891 -7.186847,5.63056 -13.746357,12.05973 -19.369517,19.25891 -2.80259,3.6903 -5.65099,7.35749 -8.32672,11.14114 l 0.005,0.066 c -2.48627,-14.14655 -4.81837,-28.46364 -9.78312,-41.99001 -8.60624,-18.41499 -23.24443,-34.38656 -26.44607,-55.03487 -1.71205,-9.25629 0.74696,-18.70695 5.38419,-26.75712 7.26467,-2.02567 14.52933,-4.05133 21.794,-6.077 6.51063,0.64673 13.09421,1.32325 19.09815,4.14839 7.38623,3.02501 21.328375,8.4254 29.051995,10.59124"
               style="fill:#08b355;fill-opacity:1;stroke:#000000;stroke-opacity:1"
               sodipodi:nodetypes="ccccccccccc"
               inkscape:label="upper body" />
            <path
               id="STROKE_c56026bc-bec5-439e-b4d8-8f745febe9b4-4-9"
               opacity="1"
               fill="none"
               stroke="#fc6932"
               stroke-width="3.156"
               stroke-opacity="1.000"
               stroke-linecap="round"
               stroke-linejoin="round"
               d="m 47.3935,715.91594 c -3.283691,-16.15401 -5.768641,-32.47416 -9.52839,-48.52687 -28.0303357,5.73266 -56.094761,11.38861 -84.138796,17.07606 -15.445657,3.39627 -30.210912,6.6169 -45.797348,11.03134 1.129835,4.10329 1.740507,7.25665 2.928959,11.34305 3.742992,12.87 7.637552,25.6958 10.807191,38.72636 6.026995,22.63985 12.301661,45.21352 18.427922,67.82684 39.185303,-9.50537 113.711718,-33.02768 117.922543,-34.37118 z"
               style="fill:#fee101;fill-opacity:1;stroke:#000000;stroke-opacity:1"
               sodipodi:nodetypes="ccscscscc"
               inkscape:label="box2" />
            <path
               id="STROKE_32002541-dd23-4f4b-8e4a-a82ca30819a4-7-7"
               opacity="1"
               fill="none"
               stroke="#fc6932"
               stroke-width="3.1748"
               stroke-opacity="1.000"
               stroke-linecap="round"
               stroke-linejoin="round"
               d="m -88.818599,705.6006 c 42.780845,-8.72974 85.5616921,-17.45946 128.342538,-26.1892"
               style="fill:#000000;stroke:#000000;stroke-opacity:1"
               sodipodi:nodetypes="cc"
               inkscape:label="box1" />
            <path
               id="STROKE_0305e497-f0a5-45c3-aade-db69fff6150f-9-2"
               opacity="1"
               fill="none"
               stroke="#fc6932"
               stroke-width="3.189"
               stroke-opacity="1.000"
               stroke-linecap="round"
               stroke-linejoin="round"
               d="m -170.9164,683.86401 c -1.54822,0.53177 -3.17936,1.35315 -3.91942,2.9004 -0.55006,0.96949 -0.74902,2.11075 -0.5602,3.20916 0.17389,1.43695 1.06158,2.68881 2.08295,3.66566 1.55331,1.46801 3.74944,1.93475 5.82172,2.01142 0.45387,0.0263 0.90798,0.0482 1.36215,0.0687"
               style="fill:#fecda3;fill-opacity:1;stroke:#000000;stroke-opacity:1"
               inkscape:label="ear" />
            <path
               id="STROKE_2eb1f502-94b8-4164-b317-f178a6caae49-2-4-5"
               opacity="1"
               fill="none"
               stroke="#fc6932"
               stroke-width="3.156"
               stroke-opacity="1.000"
               stroke-linecap="round"
               stroke-linejoin="round"
               d="m -130.66598,685.57333 c 3.7425,-1.46217 5.78754,-1.27397 6.28221,-2.02597 0.49467,-0.752 -1.21229,-2.63047 -3.92762,-7.0938 -2.71467,-4.46333 -2.37436,-5.69128 -3.03169,-9.53795 -0.65934,-3.68348 -4.9046,-5.73487 -9.33299,-6.50017 -5.64469,-0.9755 -12.75244,0.35991 -16.44843,1.29523 -10.21583,2.58526 -11.71013,4.14643 -13.81198,9.71727 -1.65005,4.37341 0.84571,12.70896 3.53213,23.40134 0.90786,3.72034 3.5208,8.65 6.54265,10.9217 1.99538,1.50005 4.22567,2.90345 9.89305,1.4839 3.55784,-0.89115 9.8145,-3.05298 14.02718,-6.50881 4.62422,-5.83199 5.56394,-12.1527 6.27549,-15.15274 z"
               style="fill:#fecda3;fill-opacity:1;stroke:#000000;stroke-opacity:1"
               sodipodi:nodetypes="ccccssscsscc"
               inkscape:label="faceline" />
            <path
               id="STROKE_d7c176be-3e80-4ccd-b8a1-7a9c5070f66e-1-7"
               opacity="1"
               fill="none"
               stroke="#fc6932"
               stroke-width="3.134"
               stroke-opacity="1"
               stroke-linecap="round"
               stroke-linejoin="round"
               d="m -132.14953,691.21147 c -2.47472,0.4674 -3.13124,0.70992 -5.63074,1.02335 -1.76444,0.21528 -3.63318,0.16021 -5.24505,-0.67048 -1.54436,-0.78201 -2.43063,-2.38263 -3.09654,-3.90897 l -0.0306,-0.0802"
               style="stroke:#000000;stroke-opacity:1"
               inkscape:label="mouth"
               sodipodi:nodetypes="ccccc" />
            <path
               id="STROKE_f92b2ed8-5567-4826-bf49-12cca1e9f5ee-5-7"
               opacity="1"
               fill="none"
               stroke="#fc6932"
               stroke-width="3.224"
               stroke-opacity="1.000"
               stroke-linecap="round"
               stroke-linejoin="round"
               d="m -128.919,719.518 c 11.02076,4.03466 22.14388,7.82136 33.370169,11.23588 13.211292,3.48685 26.878217,5.51999 40.55082,5.53374 6.423329,-0.21271 12.791961,-1.19999 19.092014,-2.42362 -0.01586,3.79262 0.595967,7.70424 0.787105,11.54535 -2.225419,1.64778 -6.775561,1.54972 -9.905016,2.36273 -20.140996,3.37176 -40.656163,4.5283 -61.033622,3.05484 -11.69168,-0.49007 -23.34296,-1.74413 -35.04747,-1.95993"
               style="fill:#08b355;fill-opacity:1;stroke:#000000;stroke-opacity:1"
               inkscape:label="arm" />
            <path
               id="STROKE_4e83e059-37c0-4be8-ac79-103c19097ce9-4-8"
               opacity="1"
               fill="none"
               stroke="#fc6932"
               stroke-width="3.156"
               stroke-opacity="1.000"
               stroke-linecap="round"
               stroke-linejoin="round"
               d="m -35.076085,733.31767 c 3.963528,-3.54303 3.057318,-4.96778 5.588072,-9.46031 2.181755,-3.59551 3.797483,-9.98112 7.986863,-11.11629 2.816453,-0.24993 5.162419,2.30664 4.518716,4.10788 -1.282109,3.97384 -2.586275,7.21624 -4.880651,10.64872 0.100188,1.60135 1.914875,-1.21059 2.708075,-1.49672 4.094416,-3.44748 7.800338,-10.9253 12.7336679,-13.1743 2.0493589,-1.44848 8.3192495,0.79585 4.5149901,5.60099 -2.7754742,4.95163 -8.445774,8.86164 -12.748732,12.39103 -1.026545,0.34177 1.894018,-1.11928 2.399103,-1.38485 4.1970401,-2.10114 13.5589794,-8.071 18.2764112,-8.37776 1.681253,-0.088 6.5160068,1.72564 3.419333,7.1628 -1.49039,2.31264 -8.6498281,3.54124 -10.9746747,4.87378 -4.0750675,2.23517 -8.4654655,3.77064 -12.8091725,5.38203 4.5817936,-1.78158 14.6244808,-2.33781 20.6333132,-2.35666 2.269053,0.7504 2.771646,3.20774 1.956643,6.1073 -0.41305,2.77601 -6.8501494,2.5014 -9.0340603,2.59883 -4.5407406,-0.15105 -9.1112113,-0.30526 -13.5718959,-1.24547 2.276006,1.18758 6.4189199,3.15986 8.015197,5.3229 1.4492538,2.05369 4.1447723,4.45203 1.436162,7.04468 -1.9511261,2.73259 -8.129617,-1.77325 -9.79029,-3.36227 -3.338972,-2.89638 -4.49741,-4.05955 -8.439963,-6.26689 -1.673605,-0.74476 -8.841398,-1.19015 -10.620357,-0.84367"
               style="fill:#ffffff;fill-opacity:1;stroke:#000000;stroke-opacity:1"
               sodipodi:nodetypes="ccccccccccccccccccccccc"
               inkscape:label="hand" />
            <path
               id="path1-2-8"
               style="stroke:#08b355;stroke-width:0"
               d="m -133.91796,675.14338 a 2.2870483,2.2870483 0 0 1 -2.28704,2.28705 2.2870483,2.2870483 0 0 1 -2.28705,-2.28705 2.2870483,2.2870483 0 0 1 2.28705,-2.28705 2.2870483,2.2870483 0 0 1 2.28704,2.28705 z"
               inkscape:label="eye" />
            <path
               id="STROKE_2627785d-a7b2-46ba-8b3c-1f192cf1a2a2-0-1"
               opacity="1"
               fill="none"
               stroke="#fc6932"
               stroke-width="2.328"
               stroke-opacity="1"
               stroke-linecap="round"
               stroke-linejoin="round"
               d="m -132.3004,669.49656 c -1.68839,-0.0536 -3.41146,0.12715 -5.0031,0.71546 -1.43313,0.55802 -2.83779,1.21371 -4.08238,2.12735 -1.09057,0.78953 -2.05326,1.73729 -3.06284,2.62416"
               style="stroke:#000000;stroke-opacity:1"
               inkscape:label="eyebrow" />
            <path
               id="path2-2-4"
               style="stroke:#08b355;stroke-width:0"
               inkscape:transform-center-x="0.24304553"
               inkscape:transform-center-y="2.8814622"
               d="m -167.32799,691.88418 -3.64571,-15.27146 12.51347,-1.19812 z"
               sodipodi:nodetypes="cccc"
               inkscape:label="hair" />
            <path
               id="STROKE_2eb1f502-94b8-4164-b317-f178a6caae49-4-8"
               opacity="1"
               fill="none"
               stroke="#fc6932"
               stroke-width="3.156"
               stroke-opacity="1.000"
               stroke-linecap="round"
               stroke-linejoin="round"
               d="m -161.94954,652.19638 c -5.46558,3.80031 -6.79127,7.8201 -8.06924,11.55876 -2.29266,6.70712 -1.20068,12.60602 -0.61985,15.39613 8.74818,-4.25235 18.09835,-6.9115 26.72071,-11.33218 6.55658,-3.36155 13.18458,-6.79616 18.66329,-11.79651 2.04566,-1.90947 3.45215,-2.88594 3.76776,-5.86433 -0.77068,-3.07207 -5.79276,-3.82012 -7.4761,-2.62438 -3.20642,2.41768 -4.2579,7.02923 -6.61492,10.25728 -2.17621,-3.54427 -12.30741,-12.65032 -26.37165,-5.59477 z"
               style="fill:#57c3e0;fill-opacity:1;stroke:#000000;stroke-opacity:1"
               sodipodi:nodetypes="cscsccccc"
               transform="translate(2.5000001e-6)"
               inkscape:label="cap" />
          </g>
          <path
             style="font-size:8.6056px;font-family:'Avenir LT Std';-inkscape-font-specification:'Avenir LT Std';stroke:#08b355;stroke-width:0"
             d="m 111.78119,-4.7809591 h 1.70018 c 1.40681,0 2.65361,-0.8200851 2.65361,-2.3469097 0,-1.7268461 -1.27347,-2.3735798 -2.79363,-2.3735798 h -1.56016 z m 1.04011,-3.7603901 h 0.6134 c 0.88009,0 1.62016,0.4333782 1.62016,1.3601413 0,1.0734442 -0.72674,1.4401488 -1.6935,1.4401488 h -0.54006 z m 6.26065,2.6869452 c -0.16668,0.2266906 -0.38671,0.3933745 -0.7134,0.3933745 -0.38671,0 -0.67341,-0.246692 -0.75341,-0.626732 h 2.32024 v -0.3133656 c 0,-1.0334405 -0.58673,-1.7001762 -1.52016,-1.7001762 -1.00011,0 -1.80019,0.6667357 -1.80019,1.7001762 0,1.0334404 0.80008,1.7001761 1.80019,1.7001761 0.52005,0 1.04677,-0.2333575 1.36681,-0.6400658 z m -1.46681,-0.9134279 c 0.0267,-0.3133656 0.26669,-0.6133967 0.70673,-0.6133967 0.36004,0 0.62007,0.2800289 0.6134,0.6133967 z m 2.94029,1.9868728 h 1.00011 V -9.821482 h -1.00011 z m 1.73352,0 h 1.0001 v -3.2403361 h -1.0001 z m -0.08,-4.260442 c 0,0.3200333 0.26003,0.5800607 0.58006,0.5800607 0.32004,0 0.58007,-0.2600274 0.58007,-0.5800607 0,-0.3200326 -0.26003,-0.5800601 -0.58007,-0.5800601 -0.32003,0 -0.58006,0.2600275 -0.58006,0.5800601 z m 2.8003,4.260442 h 1.06011 l 1.28013,-3.2403361 h -1.00677 l -0.76008,2.200228 h -0.0133 l -0.82008,-2.200228 h -1.08016 z m 5.07385,-1.0734449 c -0.16669,0.2266906 -0.38671,0.3933745 -0.71341,0.3933745 -0.38671,0 -0.67341,-0.246692 -0.75342,-0.626732 h 2.32024 v -0.3133656 c 0,-1.0334405 -0.58672,-1.7001762 -1.52015,-1.7001762 -1.0001,0 -1.80019,0.6667357 -1.80019,1.7001762 0,1.0334404 0.80009,1.7001761 1.80019,1.7001761 0.52005,0 1.04678,-0.2333575 1.3668,-0.6400658 z m -1.46683,-0.9134279 c 0.0267,-0.3133656 0.2667,-0.6133967 0.70675,-0.6133967 0.36003,0 0.62006,0.2800289 0.61339,0.6133967 z m 2.92697,1.9868728 h 1.00011 v -1.3534738 c 0,-0.6467335 0.0933,-1.0867794 0.85341,-1.0867794 0.14669,0 0.28671,0.026668 0.42672,0.066677 v -0.9134278 c -0.0934,-0.026668 -0.22002,-0.033338 -0.33337,-0.033338 -0.44005,0 -0.72007,0.2066884 -0.93343,0.6000623 h -0.0133 V -8.021293 h -1.0001 z m 2.72694,0 h 1.00011 v -3.2403361 h -1.00011 z m -0.08,-4.260442 c 0,0.3200333 0.26003,0.5800607 0.58006,0.5800607 0.32003,0 0.58006,-0.2600274 0.58006,-0.5800607 0,-0.3200326 -0.26003,-0.5800601 -0.58006,-0.5800601 -0.32003,0 -0.58006,0.2600275 -0.58006,0.5800601 z m 1.80019,4.260442 h 1.0001 v -1.6135004 c 0,-0.4200436 0.08,-0.8267528 0.60007,-0.8267528 0.51338,0 0.52005,0.4800496 0.52005,0.8534219 v 1.5868313 h 1.0001 v -1.786852 c 0,-0.8667565 -0.18668,-1.5334922 -1.20012,-1.5334922 -0.48672,0 -0.81342,0.2666943 -0.94677,0.520054 h -0.0133 v -0.4400459 h -0.96011 z m 7.22741,-3.2403361 h -0.92009 v 0.4267113 h -0.0133 c -0.15334,-0.2333575 -0.54005,-0.5067194 -1.10678,-0.5067194 -0.92009,0 -1.48015,0.826752 -1.48015,1.6868416 0,0.9801014 0.6334,1.6735071 1.5935,1.6735071 0.30003,0 0.68674,-0.1133458 0.91343,-0.4267114 h 0.0133 v 0.3133656 c 0,0.4600482 -0.2867,0.7934161 -0.89343,0.7934161 -0.40671,0 -0.74674,-0.1600171 -1.05344,-0.4200437 l -0.55339,0.826752 c 0.46671,0.3733723 1.05344,0.4733827 1.62683,0.4733827 1.25347,0 1.87353,-0.6534012 1.87353,-1.8735278 z m -2.52026,1.6001658 c 0,-0.4200436 0.3467,-0.8000829 0.80008,-0.8000829 0.45338,0 0.80009,0.3800393 0.80009,0.8000829 0,0.4200437 -0.34671,0.8000829 -0.80009,0.8000829 -0.45338,0 -0.80008,-0.3800392 -0.80008,-0.8000829 z m 8.46754,-2.7069468 c -0.40005,-0.3533701 -0.91343,-0.493385 -1.44682,-0.493385 -0.92676,0 -1.80019,0.5267218 -1.80019,1.5334925 0,1.5734966 2.21356,1.1067816 2.21356,1.9735381 0,0.3333678 -0.38004,0.4933841 -0.72007,0.4933841 -0.3467,0 -0.6934,-0.1666839 -0.90676,-0.4467128 l -0.74008,0.8134175 c 0.44672,0.4133768 0.98011,0.5933952 1.58684,0.5933952 0.97343,0 1.82019,-0.5000517 1.82019,-1.5534944 0,-1.6535048 -2.17357,-1.100114 -2.17357,-1.9602036 0,-0.3533693 0.40671,-0.4867165 0.70008,-0.4867165 0.25336,0 0.58672,0.1000104 0.75341,0.3133657 z m 0.65339,4.3471171 h 1.0001 v -1.6135004 c 0,-0.4200436 0.08,-0.8267528 0.60007,-0.8267528 0.46005,0 0.44671,0.4867172 0.44671,0.7267425 v 1.7135107 h 1.0001 v -1.7135107 c 0,-0.4000415 0.14669,-0.7267425 0.60673,-0.7267425 0.32671,0 0.44005,0.2533598 0.44005,0.5533908 v 1.8868624 h 1.0001 v -1.9135315 c 0,-0.7867483 -0.26669,-1.4068127 -1.14678,-1.4068127 -0.48005,0 -0.79342,0.1666839 -1.02677,0.5800599 -0.17336,-0.3933738 -0.54673,-0.5800599 -1.0001,-0.5800599 -0.48672,0 -0.81343,0.2666943 -0.94677,0.520054 h -0.0133 v -0.4400459 h -0.9601 z m 5.81395,0 h 1.0001 v -3.2403361 h -1.0001 z m -0.08,-4.260442 c 0,0.3200333 0.26003,0.5800607 0.58006,0.5800607 0.32004,0 0.58006,-0.2600274 0.58006,-0.5800607 0,-0.3200326 -0.26002,-0.5800601 -0.58006,-0.5800601 -0.32003,0 -0.58006,0.2600275 -0.58006,0.5800601 z m 1.81352,4.260442 h 1.0001 V -9.821482 h -1.0001 z m 4.0871,-1.0734449 c -0.16669,0.2266906 -0.38672,0.3933745 -0.71341,0.3933745 -0.38671,0 -0.67341,-0.246692 -0.75341,-0.626732 h 2.32024 v -0.3133656 c 0,-1.0334405 -0.58673,-1.7001762 -1.52016,-1.7001762 -1.0001,0 -1.80019,0.6667357 -1.80019,1.7001762 0,1.0334404 0.80009,1.7001761 1.80019,1.7001761 0.52006,0 1.04678,-0.2333575 1.36681,-0.6400658 z m -1.46682,-0.9134279 c 0.0266,-0.3133656 0.26669,-0.6133967 0.70674,-0.6133967 0.36003,0 0.62006,0.2800289 0.6134,0.6133967 z m 5.37389,-0.9067608 c -0.30004,-0.3200326 -0.77342,-0.4267106 -1.20013,-0.4267106 -0.68007,0 -1.36015,0.3333679 -1.36015,1.0934463 0,1.2334611 1.68685,0.793416 1.68685,1.3134701 0,0.1733507 -0.22669,0.2333574 -0.45338,0.2333574 -0.30003,0 -0.52006,-0.1266802 -0.70674,-0.3533701 l -0.60673,0.6734035 c 0.32003,0.3267002 0.82009,0.4400451 1.27347,0.4400451 0.6934,0 1.49348,-0.2400244 1.49348,-1.0667772 0,-1.2334611 -1.68684,-0.826752 -1.68684,-1.3068024 0,-0.193353 0.20002,-0.2666943 0.3667,-0.2666943 0.24003,0 0.43339,0.093344 0.58007,0.273362 z m 0.66006,2.3202405 c 0,0.3400355 0.27336,0.6133976 0.61339,0.6133976 0.34004,0 0.61341,-0.2733621 0.61341,-0.6133976 0,-0.3400347 -0.27337,-0.6133967 -0.61341,-0.6133967 -0.34003,0 -0.61339,0.273362 -0.61339,0.6133967 z"
             id="text4"
             inkscape:label="tagline"
             aria-label="Delivering Smiles." />
          <g
             id="g4"
             style="fill:#08b355;fill-opacity:1"
             transform="translate(5.0454245,-142.05346)"
             inkscape:label="logo">
            <path
               style="font-size:53.874px;font-family:'Showcard Gothic';-inkscape-font-specification:'Showcard Gothic';fill:#000000;stroke:#08b355;stroke-width:0"
               d="m 104.57226,32.859018 q -0.36828,5.52419 -1.07853,20.150139 -0.36828,8.996537 -0.55242,20.255362 H 93.418656 L 93.1556,60.874551 83.8697,74.237828 73.847242,60.979773 73.584185,73.264519 H 64.114146 Q 63.930007,67.240522 63.403893,52.903935 63.035614,44.643956 62.062305,32.859018 H 77.13545 q 0.78917,1.920314 2.709484,6.208137 1.473117,3.051457 4.024766,7.207752 1.131144,-1.788785 4.156295,-7.391892 1.078532,-2.078147 2.762095,-6.023997 z m 37.43296,19.334664 q 0,9.285899 -4.78763,15.704481 -5.02438,6.707945 -12.86347,6.707945 -8.07584,0 -13.07392,-6.760556 -4.70871,-6.365971 -4.70871,-15.65187 0,-9.917236 5.1296,-15.572954 4.84025,-5.313744 12.65303,-5.313744 7.68125,0 12.52149,5.34005 5.12961,5.682023 5.12961,15.546648 z m -12.65303,4.629797 q 0,-7.312975 -4.94546,-7.312975 -4.81394,0 -4.81394,7.365586 0,2.946234 1.26268,5.497884 1.4205,2.867317 3.49865,2.867317 2.02553,0 3.57757,-2.919929 1.4205,-2.656872 1.4205,-5.497883 z m 48.53396,-23.964461 q -2.18337,6.471194 -6.99731,21.123449 -2.20968,6.892084 -5.70833,19.282052 h -9.15437 q -1.76248,-5.997692 -5.89247,-19.59772 -2.3412,-7.52342 -6.94469,-20.807781 h 18.5981 q 0.26306,2.499038 1.23637,8.128451 0.65764,2.998845 2.05184,8.259978 0.73656,-2.551649 2.15706,-8.31259 0.65764,-3.104068 1.49943,-8.075839 z m 28.98884,0 -1.13114,16.651486 q -0.97331,-0.157834 -4.20891,-0.552419 -2.20967,-0.210445 -4.84024,-0.263057 l -0.39458,5.024382 q 2.89362,0.07892 9.44373,-0.131528 -0.28936,0.973309 -0.9207,3.630181 -0.36828,1.604646 -0.65764,3.709099 -0.76286,-0.184139 -3.81432,-0.473502 -1.42051,-0.07892 -4.20891,-0.05261 l -0.26305,5.866163 q 1.97292,-0.02631 7.26036,-0.341974 0.99961,-0.07892 3.28821,-0.631336 -0.21045,0.815476 -0.97331,3.919544 -0.36828,1.604646 -0.89439,4.051073 h -23.54357 l -0.76287,-20.623641 q -0.21044,-7.076224 -1.02592,-19.78186 z"
               id="text2"
               aria-label="MOVE" />
            <path
               style="font-size:53.874px;font-family:'Showcard Gothic';-inkscape-font-specification:'Showcard Gothic';fill:#000000;stroke:#08b355;stroke-width:0"
               d="m 126.45857,83.216291 -1.02592,21.491719 q -0.28936,6.9447 -0.68395,18.91378 h -14.75747 l -1.78879,-40.405499 z m 34.27628,0 -0.76286,16.546263 q -1.02592,-0.157834 -3.28821,-0.394585 -1.3942,-0.07892 -4.52457,-0.157834 -0.15784,1.552035 -0.55242,7.497115 -0.28937,5.76094 -0.94701,16.91454 h -12.73194 q -0.21044,-5.31375 -0.78917,-16.7041 -0.26306,-3.94585 -0.55242,-7.707555 l -4.15629,0.157834 -3.76171,0.394585 -0.65764,-16.546263 z"
               id="text2-1"
               aria-label="IT" />
          </g>
        </g>
      </g>
    </g>
  </g>
</svg>
