<?xml version="1.0" encoding="UTF-8" standalone="no"?>
<!-- Generator: Adobe Illustrator 15.1.0, SVG Export Plug-In . SVG Version: 6.00 Build 0)  -->

<svg
   version="1.1"
   id="レイヤー_1"
   x="0px"
   y="0px"
   width="540px"
   height="140px"
   viewBox="0 0 540 140"
   enable-background="new 0 0 540 140"
   xml:space="preserve"
   sodipodi:docname="logo.svg"
   inkscape:version="1.3.2 (091e20e, 2023-11-25, custom)"
   xmlns:inkscape="http://www.inkscape.org/namespaces/inkscape"
   xmlns:sodipodi="http://sodipodi.sourceforge.net/DTD/sodipodi-0.dtd"
   xmlns="http://www.w3.org/2000/svg"
   xmlns:svg="http://www.w3.org/2000/svg"><defs
   id="defs3" /><sodipodi:namedview
   id="namedview3"
   pagecolor="#ffffff"
   bordercolor="#000000"
   borderopacity="0.25"
   inkscape:showpageshadow="2"
   inkscape:pageopacity="0.0"
   inkscape:pagecheckerboard="0"
   inkscape:deskcolor="#d1d1d1"
   inkscape:zoom="1.1240741"
   inkscape:cx="201.49918"
   inkscape:cy="2.6688633"
   inkscape:window-width="1920"
   inkscape:window-height="991"
   inkscape:window-x="-9"
   inkscape:window-y="-9"
   inkscape:window-maximized="1"
   inkscape:current-layer="g3" />
<g
   id="g3"><path
   style="font-size:117.864px;font-family:'Snap ITC';-inkscape-font-specification:'Snap ITC';fill:#08b355;stroke-width:0.88398"
   d="M 130.81343,109.85391 61.522289,107.37923 74.12591,100.30048 85.17566,49.13784 59.508012,91.437663 37.466063,44.188472 46.271333,105.59516 64.802684,114.17022 5.0514191e-4,108.41514 9.8992394,102.77517 16.460028,38.145641 3.5111028,32.390562 57.83904,25.772223 65.147989,57.2525 l 6.963644,-28.02723 52.658967,3.050191 -15.88402,5.524875 6.61834,63.305854 z m 12.60363,-38.098614 q 1.78407,2.18693 4.02855,3.222844 2.24448,1.035914 5.29467,1.035914 5.23712,0 8.86282,-3.222844 3.6257,-3.222843 3.6257,-7.884457 0,-1.841625 -0.5755,-3.337945 -0.57551,-1.49632 -1.78408,-2.647336 -7.02119,1.956727 -11.85546,5.179571 -4.83427,3.165292 -7.5967,7.654253 z m 53.52222,8.977922 q 0,4.719164 -1.20856,8.805269 -1.20857,4.086106 -3.6257,7.654254 -4.77672,7.078749 -12.43097,11.164849 -7.5967,4.08611 -16.11422,4.08611 -14.5028,0 -23.94112,-8.69017 -9.38078,-8.747718 -9.38078,-22.099499 0,-14.157492 9.55343,-23.135414 9.61098,-9.035473 24.74683,-9.035473 14.2726,0 23.30807,8.747719 9.09302,8.747719 9.09302,22.502355 z m 93.05962,-29.120695 -11.1073,5.639977 -27.22152,48.22755 11.68281,6.84855 -53.63733,-1.66898 10.01384,-5.29467 -19.22197,-47.652044 -8.92037,-3.395496 50.52959,-4.949367 -9.66853,6.330586 6.61834,34.933323 12.14321,-31.250073 -6.61834,-5.639977 z m 5.23713,19.682367 q 1.84162,1.49632 4.31631,2.359582 2.47468,0.805711 5.06446,0.805711 4.54652,0 7.42406,-2.647336 2.87753,-2.647336 2.87753,-6.790992 0,-2.014277 -0.5755,-3.625699 -0.57551,-1.611422 -1.78408,-3.050192 -6.15793,0.920813 -10.53179,4.201207 -4.31631,3.222844 -6.79099,8.747719 z m 57.26302,41.03371 -5.17957,-9.55343 q -7.65425,4.83426 -15.3085,7.19384 -7.65426,2.35959 -15.82647,2.35959 -15.94156,0 -25.55255,-7.88446 -9.55342,-7.942008 -9.55342,-21.006035 0,-6.906094 2.58978,-13.294231 2.64734,-6.445687 7.42405,-11.222402 4.60406,-4.604062 10.6469,-6.963644 6.10038,-2.359582 13.40933,-2.359582 13.98484,0 23.07786,6.042832 9.09302,6.042832 9.09302,15.193406 0,9.208125 -8.40241,15.423609 -8.34486,6.215484 -20.94848,6.215484 -3.10775,0 -5.81263,-0.460406 -2.70489,-0.517957 -5.17957,-1.49632 5.40977,3.68325 10.58934,5.467324 5.23712,1.726523 10.762,1.726523 6.73344,0 12.37341,-2.99264 5.63998,-2.992641 9.66853,-8.690168 z m 123.84928,-4.25876 -70.55726,6.84854 11.85546,-8.86282 5.69753,-64.341771 -20.20032,-15.48116 69.46379,5.812629 -25.8403,7.42405 11.68281,57.263027 z m 63.65116,4.60406 -8.57506,-9.66853 q -6.27304,4.89182 -12.66117,7.30895 -6.38814,2.35958 -13.40933,2.35958 -10.93465,0 -17.49544,-6.33058 -6.56079,-6.33059 -6.56079,-16.919934 0,-3.165293 0.51796,-7.539152 0.5755,-4.37386 1.84162,-11.279953 l -6.67589,0.805711 -6.15793,10.474242 -2.12938,-35.105976 7.88445,7.884457 10.9922,-0.345305 q 1.55387,-5.697527 3.22285,-10.992199 1.72652,-5.352223 3.6257,-10.359141 l -14.733,-5.639976 50.41448,-2.244481 -14.27259,8.977922 q -1.15102,5.294672 -2.12938,10.013836 -0.92081,4.719164 -1.61142,9.150574 l 13.17913,-0.575508 8.97792,-11.04975 -1.43877,32.516191 -8.11466,-9.438328 -14.3877,2.014278 q -0.57551,4.661613 -0.86326,8.459964 -0.28775,3.798352 -0.28775,6.61834 0,6.388137 2.01427,9.208125 2.01428,2.819988 6.56079,2.819988 4.37386,0 9.03548,-2.589785 4.66161,-2.589785 9.03547,-7.424051 z"
   id="text3"
   aria-label="Move It" />
	
	
	
</g>
</svg>
