<?xml version="1.0" encoding="UTF-8" standalone="no"?>
<!-- Created with Inkscape (http://www.inkscape.org/) -->

<svg
   width="345.43301"
   height="71.091003"
   viewBox="0 0 91.395817 18.809494"
   version="1.1"
   id="svg1"
   inkscape:export-filename="logo6.png"
   inkscape:export-xdpi="96"
   inkscape:export-ydpi="96"
   inkscape:version="1.3.2 (091e20e, 2023-11-25, custom)"
   sodipodi:docname="logo_text.svg"
   xml:space="preserve"
   xmlns:inkscape="http://www.inkscape.org/namespaces/inkscape"
   xmlns:sodipodi="http://sodipodi.sourceforge.net/DTD/sodipodi-0.dtd"
   xmlns="http://www.w3.org/2000/svg"
   xmlns:svg="http://www.w3.org/2000/svg"><sodipodi:namedview
     id="namedview1"
     pagecolor="#ffffff"
     bordercolor="#000000"
     borderopacity="0.25"
     inkscape:showpageshadow="2"
     inkscape:pageopacity="0.0"
     inkscape:pagecheckerboard="0"
     inkscape:deskcolor="#d1d1d1"
     inkscape:document-units="mm"
     inkscape:export-bgcolor="#ffffffff"
     inkscape:zoom="0.6895202"
     inkscape:cx="374.89837"
     inkscape:cy="382.87493"
     inkscape:window-width="1920"
     inkscape:window-height="991"
     inkscape:window-x="-9"
     inkscape:window-y="-9"
     inkscape:window-maximized="1"
     inkscape:current-layer="g4" /><defs
     id="defs1" /><g
     inkscape:label="Layer 1"
     inkscape:groupmode="layer"
     id="layer1"><g
       id="g3"
       transform="matrix(0.98385572,0,0,0.98385572,2.5888089,119.17073)"><g
         id="g4"
         style="fill:#08b355;fill-opacity:1"
         transform="matrix(0.4415341,0,0,0.4415341,-50.406357,-156.55623)"><path
           style="font-size:53.874px;font-family:'Showcard Gothic';-inkscape-font-specification:'Showcard Gothic';fill:#000000;stroke:#08b355;stroke-width:0"
           d="m 150.71239,81.795107 q -0.36827,5.524189 -1.07853,20.150143 -0.36828,8.99653 -0.55242,20.25536 h -9.52265 l -0.26305,-12.38997 -9.2859,13.36328 -10.02246,-13.25806 -0.26306,12.28475 h -9.47004 q -0.18414,-6.024 -0.71025,-20.36059 -0.36828,-8.259975 -1.34159,-20.044913 h 15.07315 q 0.78917,1.920313 2.70948,6.208137 1.47312,3.051457 4.02477,7.207752 1.13114,-1.788785 4.15629,-7.391892 1.07853,-2.078147 2.7621,-6.023997 z m 37.43297,19.334663 q 0,9.2859 -4.78763,15.70448 -5.02439,6.70795 -12.86347,6.70795 -8.07584,0 -13.07392,-6.76056 -4.70871,-6.36597 -4.70871,-15.65187 0,-9.917235 5.1296,-15.572953 4.84024,-5.313744 12.65303,-5.313744 7.68125,0 12.52149,5.34005 5.12961,5.682023 5.12961,15.546647 z m -12.65303,4.6298 q 0,-7.312978 -4.94546,-7.312978 -4.81394,0 -4.81394,7.365588 0,2.94623 1.26267,5.49788 1.42051,2.86732 3.49866,2.86732 2.02553,0 3.57757,-2.91993 1.4205,-2.65687 1.4205,-5.49788 z m 48.53395,-23.964463 q -2.18337,6.471193 -6.9973,21.123453 -2.20968,6.89208 -5.70833,19.28205 h -9.15437 q -1.76248,-5.99769 -5.89247,-19.59772 -2.34121,-7.523423 -6.9447,-20.807783 h 18.59811 q 0.26305,2.499038 1.23636,8.12845 0.65764,2.998846 2.05184,8.259979 0.73656,-2.55165 2.15707,-8.31259 0.65764,-3.104069 1.49942,-8.075839 z m 28.98885,0 -1.13114,16.651485 q -0.97331,-0.157834 -4.20891,-0.552419 -2.20968,-0.210445 -4.84024,-0.263056 l -0.39459,5.024383 q 2.89363,0.0789 9.44374,-0.13153 -0.28937,0.97331 -0.9207,3.63018 -0.36828,1.60465 -0.65764,3.7091 -0.76287,-0.18414 -3.81432,-0.4735 -1.42051,-0.0789 -4.20891,-0.0526 l -0.26306,5.86616 q 1.97293,-0.0263 7.26037,-0.34197 0.99961,-0.0789 3.2882,-0.63134 -0.21044,0.81548 -0.97331,3.91954 -0.36827,1.60465 -0.89439,4.05108 h -23.54357 l -0.76286,-20.62364 q -0.21045,-7.076227 -1.02592,-19.781863 z m 31.30373,0 -1.02592,21.491723 q -0.28936,6.9447 -0.68395,18.91378 h -14.75747 l -1.78879,-40.405503 z m 34.27628,0 -0.76286,16.546263 q -1.02592,-0.157834 -3.28821,-0.394585 -1.3942,-0.07892 -4.52458,-0.157834 -0.15783,1.552034 -0.55241,7.497119 -0.28937,5.76094 -0.94701,16.91454 h -12.73194 q -0.21045,-5.31375 -0.78917,-16.7041 -0.26306,-3.94585 -0.55242,-7.707559 l -4.15629,0.157834 -3.76171,0.394585 -0.65765,-16.546263 z"
           id="text2-1"
           aria-label="MOVE IT" /></g></g></g></svg>
