<?xml version="1.0" encoding="UTF-8" standalone="no"?>
<!-- Created with Inkscape (http://www.inkscape.org/) -->

<svg
   width="423.21899"
   height="71.091003"
   viewBox="0 0 111.97669 18.809494"
   version="1.1"
   id="svg1"
   inkscape:export-filename="logo6.png"
   inkscape:export-xdpi="96"
   inkscape:export-ydpi="96"
   inkscape:version="1.3.2 (091e20e, 2023-11-25, custom)"
   sodipodi:docname="logo_text.svg"
   xml:space="preserve"
   xmlns:inkscape="http://www.inkscape.org/namespaces/inkscape"
   xmlns:sodipodi="http://sodipodi.sourceforge.net/DTD/sodipodi-0.dtd"
   xmlns="http://www.w3.org/2000/svg"
   xmlns:svg="http://www.w3.org/2000/svg"><sodipodi:namedview
     id="namedview1"
     pagecolor="#ffffff"
     bordercolor="#000000"
     borderopacity="0.25"
     inkscape:showpageshadow="2"
     inkscape:pageopacity="0.0"
     inkscape:pagecheckerboard="0"
     inkscape:deskcolor="#d1d1d1"
     inkscape:document-units="mm"
     inkscape:export-bgcolor="#ffffffff"
     inkscape:zoom="0.97512882"
     inkscape:cx="323.03424"
     inkscape:cy="236.89178"
     inkscape:window-width="1920"
     inkscape:window-height="991"
     inkscape:window-x="-9"
     inkscape:window-y="-9"
     inkscape:window-maximized="1"
     inkscape:current-layer="g2" /><defs
     id="defs1" /><g
     inkscape:label="Layer 1"
     inkscape:groupmode="layer"
     id="layer1"><g
       id="g3"
       transform="matrix(0.98385572,0,0,0.98385572,2.5888089,119.17073)"><g
         id="g4"
         style="fill:#08b355;fill-opacity:1"
         transform="matrix(0.4415341,0,0,0.4415341,-50.406357,-156.55623)"><g
           id="g2"
           transform="translate(-169.46448)"><g
             id="g5"
             transform="translate(-4.8725531)"><path
               style="font-size:53.874px;font-family:'Showcard Gothic';-inkscape-font-specification:'Showcard Gothic';fill:#000000;stroke:#08b355;stroke-width:0"
               d="m 372.42661,81.795237 q -0.36827,5.52419 -1.07853,20.150133 -0.36828,8.99653 -0.55242,20.25536 h -9.52265 l -0.26305,-12.38997 -9.2859,13.36328 -10.02246,-13.25806 -0.26306,12.28475 h -9.47004 q -0.18414,-6.024 -0.71025,-20.36059 -0.36828,-8.259963 -1.34159,-20.044903 h 15.07315 q 0.78917,1.92031 2.70948,6.20814 1.47312,3.05146 4.02477,7.20775 1.13114,-1.78878 4.15629,-7.39189 1.07853,-2.07815 2.7621,-6.024 z m 37.43297,19.334653 q 0,9.2859 -4.78763,15.70448 -5.02439,6.70795 -12.86347,6.70795 -8.07584,0 -13.07392,-6.76056 -4.70871,-6.36597 -4.70871,-15.65187 0,-9.917223 5.1296,-15.572943 4.84024,-5.31374 12.65303,-5.31374 7.68125,0 12.52149,5.34005 5.12961,5.68202 5.12961,15.546633 z m -12.65303,4.6298 q 0,-7.312963 -4.94546,-7.312963 -4.81394,0 -4.81394,7.365573 0,2.94623 1.26267,5.49788 1.42051,2.86732 3.49866,2.86732 2.02553,0 3.57757,-2.91993 1.4205,-2.65687 1.4205,-5.49788 z M 445.7405,81.795237 q -2.18337,6.47119 -6.9973,21.123443 -2.20968,6.89208 -5.70833,19.28205 h -9.15437 q -1.76248,-5.99769 -5.89247,-19.59772 -2.34121,-7.523413 -6.9447,-20.807773 h 18.59811 q 0.26305,2.49904 1.23636,8.12845 0.65764,2.99885 2.05184,8.25998 0.73656,-2.55165 2.15707,-8.31259 0.65764,-3.10407 1.49942,-8.07584 z m 28.98885,0 -1.13114,16.65149 q -0.97331,-0.15784 -4.20891,-0.55242 -2.20968,-0.21045 -4.84024,-0.26306 l -0.39459,5.024373 q 2.89363,0.0789 9.44374,-0.13153 -0.28937,0.97331 -0.9207,3.63018 -0.36828,1.60465 -0.65764,3.7091 -0.76287,-0.18414 -3.81432,-0.4735 -1.42051,-0.0789 -4.20891,-0.0526 l -0.26306,5.86616 q 1.97293,-0.0263 7.26037,-0.34197 0.99961,-0.0789 3.2882,-0.63134 -0.21044,0.81548 -0.97331,3.91954 -0.36827,1.60465 -0.89439,4.05108 h -23.54357 l -0.76286,-20.62364 q -0.21045,-7.076213 -1.02592,-19.781853 z m 31.30373,0 -1.02592,21.491713 q -0.28936,6.9447 -0.68395,18.91378 h -14.75747 l -1.78879,-40.405493 z m 34.27628,0 -0.76286,16.54626 q -1.02592,-0.15783 -3.28821,-0.39458 -1.3942,-0.0789 -4.52458,-0.15783 -0.15783,1.55203 -0.55241,7.497103 -0.28937,5.76094 -0.94701,16.91454 h -12.73194 q -0.21045,-5.31375 -0.78917,-16.7041 -0.26306,-3.94585 -0.55242,-7.707543 l -4.15629,0.15783 -3.76171,0.39458 -0.65765,-16.54626 z"
               id="text2-1"
               aria-label="MOVE IT" /><g
               id="g1"
               transform="matrix(0.40254631,0,0,0.40254631,169.10694,-21.181152)"><path
                 id="STROKE_04de42fb-b328-49cf-a333-235418a3f021-3"
                 opacity="1"
                 fill="none"
                 stroke="#fc6932"
                 stroke-width="1.13581"
                 stroke-opacity="1"
                 stroke-linecap="round"
                 stroke-linejoin="round"
                 d="m 331.24519,301.46801 c 1.55877,2.64009 7.59146,15.9913 7.81763,19.16597 0.39823,4.30535 -0.30978,8.50586 -1.73511,12.50666 -1.79161,5.11818 -3.24414,10.41127 -4.72828,15.62423 l -5.00243,0.61329 c 0.28712,-4.46681 0.55428,-8.93628 0.95266,-13.39605 0.21092,-3.78066 1.46487,-7.80051 0.48345,-11.52802 -0.57048,-3.00593 -2.5751,-4.40098 -3.98403,-6.54568 l -1.20191,-3.33561 c 0.3109,1.27006 0.81375,2.49518 1.28505,3.7273 0.57975,1.51561 1.11174,3.04181 1.17998,4.67524 -0.25058,3.18482 -2.43836,5.71309 -4.1583,8.24877 -3.63871,6.18369 -7.70739,11.91755 -11.81211,17.5125 -0.10667,0.19696 -3.06971,4.53131 -2.99604,4.48085 l -5.73257,-0.26572 c 1.27781,-3.43743 3.81422,-8.32791 5.57415,-11.55308 1.42681,-2.83629 2.99971,-5.59725 4.84194,-8.1863 0.94852,-1.61863 2.39166,-3.00644 2.78249,-4.89796 l 1.17221,0.97703 c -1.73315,-1.53828 -3.36599,-3.18717 -5.13761,-4.68147 -3.2846,-2.50624 -11.49427,-16.97281 -13.37451,-20.58599"
                 style="fill:#08b355;fill-opacity:1;stroke:#000000;stroke-opacity:1"
                 sodipodi:nodetypes="cccccccccsccccccccccc"
                 inkscape:label="lower body" /><path
                 id="STROKE_02fd1402-3b27-4713-add7-7f2a85dfcf28-4"
                 opacity="1"
                 fill="none"
                 stroke="#fc6932"
                 stroke-width="1.01865"
                 stroke-opacity="1"
                 stroke-linecap="round"
                 stroke-linejoin="round"
                 d="m 301.5737,353.07771 c 1.37929,0.0111 2.75994,-0.009 4.13384,0.12394 1.59921,0.03 3.39633,-0.1958 4.89666,0.4602 2.35198,0.80746 4.74748,0.96942 7.11355,1.71227 0.74061,0.27993 1.60266,0.692 1.87563,1.49252 0.11144,0.93229 -0.91726,1.40131 -1.68703,1.50831 -2.238,0.51083 -4.55015,0.42105 -6.82781,0.55353 -2.14519,0.0471 -4.30119,0.17289 -6.44086,-0.0309 -1.37071,-0.18786 -2.87357,-0.44798 -3.69519,-1.65134 -0.6052,-1.12336 -0.25074,-2.48111 0.28141,-3.58237 0.12654,-0.14371 0.22326,-0.44249 0.3498,-0.58618 z"
                 style="fill:#aa4400;fill-opacity:1;stroke:#000000;stroke-opacity:1"
                 sodipodi:nodetypes="scccccccccss"
                 inkscape:label="right shoe" /><path
                 id="STROKE_be42ccdc-f92c-43fa-85b7-d0dd3d01480e-7"
                 opacity="1"
                 fill="none"
                 stroke="#fc6932"
                 stroke-width="1.10091"
                 stroke-opacity="1"
                 stroke-linecap="round"
                 stroke-linejoin="round"
                 d="m 327.01906,352.5378 c -0.12736,-0.23554 -0.38932,-1.13477 -0.24699,-1.75801 0.0868,-0.38023 0.23066,-0.74417 0.48392,-1.048 0.0743,-0.099 0.15037,-0.19674 0.22706,-0.29395 l 0.0935,0.0315 c 1.48567,-0.22135 2.96035,-0.51617 4.45327,-0.68886 0.26859,-0.0344 0.53731,-0.068 0.80643,-0.0981 l 0.0869,0.0367 c 2.49164,0.6078 6.47696,0.9544 9.01387,1.33203 1.52619,0.2449 3.11572,0.46546 4.46102,1.28072 0.58192,0.33256 1.10994,1.12627 0.5581,1.72272 -0.81541,0.82381 -2.03809,0.87588 -3.10913,1.09068 -3.26249,0.3941 -6.58816,0.3643 -9.85824,0.26522 -1.66281,-0.0931 -3.42669,0.0415 -5.02513,-0.48632 -1.06866,-0.36586 -1.56182,-0.74957 -1.94463,-1.38629 z"
                 style="fill:#aa4400;fill-opacity:1;stroke:#000000;stroke-opacity:1"
                 sodipodi:nodetypes="csccccccccccccc"
                 inkscape:label="left shoe" /><path
                 id="STROKE_8f6768be-21f0-4422-8f29-e94bb4f2be4b-3"
                 opacity="1"
                 fill="none"
                 stroke="#fc6932"
                 stroke-width="1.14769"
                 stroke-opacity="1.000"
                 stroke-linecap="round"
                 stroke-linejoin="round"
                 d="m 320.9062,302.08642 c -3.84914,1.18356 -7.50966,3.05141 -10.62906,5.61037 -2.58647,2.02639 -4.94718,4.34019 -6.97091,6.9311 -1.00862,1.32811 -2.03373,2.6479 -2.9967,4.0096 l 0.002,0.0238 c -0.89479,-5.09121 -1.73409,-10.2438 -3.52086,-15.11181 -3.0973,-6.62738 -8.36545,-12.3754 -9.51769,-19.80653 -0.61615,-3.33126 0.26883,-6.73246 1.93772,-9.62964 2.61449,-0.72902 5.22897,-1.45804 7.84346,-2.18706 2.34311,0.23276 4.71248,0.47623 6.87324,1.49297 2.65823,1.08867 7.67588,3.03222 10.45554,3.81169"
                 style="fill:#08b355;fill-opacity:1;stroke:#000000;stroke-opacity:1"
                 sodipodi:nodetypes="ccccccccccc"
                 inkscape:label="upper body" /><path
                 id="STROKE_c56026bc-bec5-439e-b4d8-8f745febe9b4-4"
                 opacity="1"
                 fill="none"
                 stroke="#fc6932"
                 stroke-width="1.13581"
                 stroke-opacity="1.000"
                 stroke-linecap="round"
                 stroke-linejoin="round"
                 d="m 362.56611,277.34828 c -1.18177,-5.81367 -2.07608,-11.68714 -3.42917,-17.46436 -10.08786,2.06313 -20.18798,4.09865 -30.28077,6.14551 -5.55874,1.22229 -10.87262,2.38136 -16.48203,3.97008 0.40662,1.47673 0.62639,2.6116 1.0541,4.08226 1.34707,4.63179 2.74869,9.24767 3.88941,13.93725 2.16906,8.14787 4.42725,16.27192 6.63204,24.41024 14.10242,-3.42089 40.92377,-11.88635 42.43921,-12.36986 z"
                 style="fill:#fee101;fill-opacity:1;stroke:#000000;stroke-opacity:1"
                 sodipodi:nodetypes="ccscscscc"
                 inkscape:label="box2" /><path
                 id="STROKE_32002541-dd23-4f4b-8e4a-a82ca30819a4-7"
                 opacity="1"
                 fill="none"
                 stroke="#fc6932"
                 stroke-width="1.14258"
                 stroke-opacity="1.000"
                 stroke-linecap="round"
                 stroke-linejoin="round"
                 d="m 313.54466,273.63589 c 15.39642,-3.14175 30.79285,-6.2835 46.18927,-9.42525"
                 style="fill:#000000;stroke:#000000;stroke-opacity:1"
                 sodipodi:nodetypes="cc"
                 inkscape:label="box1" /><path
                 id="STROKE_0305e497-f0a5-45c3-aade-db69fff6150f-9"
                 opacity="1"
                 fill="none"
                 stroke="#fc6932"
                 stroke-width="1.14769"
                 stroke-opacity="1.000"
                 stroke-linecap="round"
                 stroke-linejoin="round"
                 d="m 283.99843,265.8131 c -0.55719,0.19138 -1.14422,0.48698 -1.41056,1.04382 -0.19796,0.34891 -0.26957,0.75964 -0.20161,1.15495 0.0626,0.51714 0.38205,0.96768 0.74964,1.31924 0.55902,0.52832 1.34938,0.69629 2.09517,0.72389 0.16335,0.009 0.32678,0.0173 0.49023,0.0247"
                 style="fill:#fecda3;fill-opacity:1;stroke:#000000;stroke-opacity:1"
                 inkscape:label="ear" /><path
                 id="STROKE_2eb1f502-94b8-4164-b317-f178a6caae49-2-4"
                 opacity="1"
                 fill="none"
                 stroke="#fc6932"
                 stroke-width="1.13581"
                 stroke-opacity="1.000"
                 stroke-linecap="round"
                 stroke-linejoin="round"
                 d="m 298.48418,266.42826 c 1.34689,-0.52622 2.08288,-0.45849 2.26091,-0.72912 0.17803,-0.27064 -0.43629,-0.94668 -1.41351,-2.553 -0.97699,-1.60631 -0.85451,-2.04823 -1.09108,-3.43261 -0.23729,-1.32565 -1.76512,-2.06393 -3.35886,-2.33935 -2.03147,-0.35108 -4.58948,0.12952 -5.91963,0.46614 -3.67658,0.93041 -4.21437,1.49226 -4.9708,3.49715 -0.59384,1.57395 0.30436,4.57384 1.27118,8.42192 0.32673,1.33892 1.2671,3.11306 2.35464,3.93062 0.71811,0.53985 1.52077,1.04492 3.56041,0.53404 1.28043,-0.32071 3.53215,-1.09874 5.04825,-2.34246 1.66421,-2.09888 2.00241,-4.37364 2.25849,-5.45333 z"
                 style="fill:#fecda3;fill-opacity:1;stroke:#000000;stroke-opacity:1"
                 sodipodi:nodetypes="ccccssscsscc"
                 inkscape:label="faceline" /><path
                 id="STROKE_d7c176be-3e80-4ccd-b8a1-7a9c5070f66e-1"
                 opacity="1"
                 fill="none"
                 stroke="#fc6932"
                 stroke-width="1.1279"
                 stroke-opacity="1"
                 stroke-linecap="round"
                 stroke-linejoin="round"
                 d="m 297.95026,268.45738 c -0.89062,0.16821 -1.1269,0.25549 -2.02644,0.36829 -0.63501,0.0775 -1.30755,0.0577 -1.88765,-0.2413 -0.5558,-0.28144 -0.87476,-0.85748 -1.11442,-1.4068 l -0.011,-0.0289"
                 style="stroke:#000000;stroke-opacity:1"
                 inkscape:label="mouth"
                 sodipodi:nodetypes="ccccc" /><path
                 id="STROKE_f92b2ed8-5567-4826-bf49-12cca1e9f5ee-5"
                 opacity="1"
                 fill="none"
                 stroke="#fc6932"
                 stroke-width="1.16029"
                 stroke-opacity="1.000"
                 stroke-linecap="round"
                 stroke-linejoin="round"
                 d="m 299.1129,278.64463 c 3.96627,1.45204 7.96938,2.81484 12.00961,4.04369 4.75462,1.25488 9.67322,1.98659 14.59386,1.99154 2.3117,-0.0765 4.60371,-0.43186 6.87104,-0.87224 -0.006,1.36493 0.21448,2.77268 0.28327,4.15506 -0.80091,0.59303 -2.43846,0.55773 -3.56472,0.85033 -7.24856,1.21346 -14.63177,1.62969 -21.96543,1.09941 -4.20772,-0.17637 -8.40091,-0.6277 -12.61326,-0.70536"
                 style="fill:#08b355;fill-opacity:1;stroke:#000000;stroke-opacity:1"
                 inkscape:label="arm" /><path
                 id="STROKE_4e83e059-37c0-4be8-ac79-103c19097ce9-4"
                 opacity="1"
                 fill="none"
                 stroke="#fc6932"
                 stroke-width="1.13581"
                 stroke-opacity="1.000"
                 stroke-linecap="round"
                 stroke-linejoin="round"
                 d="m 332.88608,283.611 c 1.42644,-1.2751 1.10031,-1.78785 2.0111,-3.40467 0.78519,-1.29399 1.36668,-3.59211 2.8744,-4.00065 1.01361,-0.0899 1.8579,0.83014 1.62624,1.47839 -0.46142,1.43014 -0.93078,2.59705 -1.7565,3.83237 0.036,0.57631 0.68914,-0.43568 0.97461,-0.53866 1.47354,-1.24071 2.80727,-3.93191 4.58273,-4.7413 0.73754,-0.5213 2.99402,0.28642 1.6249,2.01574 -0.99887,1.78205 -3.03955,3.18922 -4.58815,4.45942 -0.36944,0.123 0.68164,-0.40282 0.86341,-0.4984 1.51048,-0.75618 4.87976,-2.90467 6.57751,-3.01508 0.60507,-0.0317 2.34505,0.62105 1.23059,2.57783 -0.53638,0.8323 -3.11299,1.27446 -3.94968,1.75403 -1.46658,0.80441 -3.04664,1.35701 -4.6099,1.93694 1.64894,-0.64117 5.26321,-0.84136 7.42573,-0.84814 0.81661,0.27006 0.99749,1.15443 0.70418,2.19796 -0.14865,0.99906 -2.46531,0.90023 -3.25127,0.93529 -1.63417,-0.0544 -3.27904,-0.10986 -4.8844,-0.44823 0.81911,0.4274 2.31011,1.1372 2.88459,1.91566 0.52158,0.73911 1.49167,1.60225 0.51686,2.53532 -0.70219,0.98343 -2.92577,-0.63818 -3.52343,-1.21005 -1.20166,-1.04238 -1.61857,-1.461 -3.03746,-2.2554 -0.60232,-0.26803 -3.18194,-0.42832 -3.82217,-0.30363"
                 style="fill:#ffffff;fill-opacity:1;stroke:#000000;stroke-opacity:1"
                 sodipodi:nodetypes="ccccccccccccccccccccccc"
                 inkscape:label="hand" /><path
                 id="path1-2"
                 style="stroke:#08b355;stroke-width:0"
                 d="m 297.31382,262.67462 a 0.82308717,0.82308717 0 0 1 -0.82308,0.82309 0.82308717,0.82308717 0 0 1 -0.82309,-0.82309 0.82308717,0.82308717 0 0 1 0.82309,-0.82308 0.82308717,0.82308717 0 0 1 0.82308,0.82308 z"
                 inkscape:label="eye" /><path
                 id="STROKE_2627785d-a7b2-46ba-8b3c-1f192cf1a2a2-0"
                 opacity="1"
                 fill="none"
                 stroke="#fc6932"
                 stroke-width="0.837826"
                 stroke-opacity="1"
                 stroke-linecap="round"
                 stroke-linejoin="round"
                 d="m 297.89597,260.64239 c -0.60764,-0.0193 -1.22776,0.0458 -1.80057,0.25748 -0.51577,0.20083 -1.0213,0.43681 -1.46921,0.76562 -0.39249,0.28414 -0.73895,0.62523 -1.10229,0.94441"
                 style="stroke:#000000;stroke-opacity:1"
                 inkscape:label="eyebrow" /><path
                 id="path2-2"
                 style="stroke:#08b355;stroke-width:0"
                 inkscape:transform-center-x="0.074970753"
                 inkscape:transform-center-y="0.88881755"
                 d="m 285.28987,268.69948 -1.31206,-5.49606 4.50348,-0.43119 z"
                 sodipodi:nodetypes="cccc"
                 inkscape:label="hair" /><path
                 id="STROKE_2eb1f502-94b8-4164-b317-f178a6caae49-4"
                 opacity="1"
                 fill="none"
                 stroke="#fc6932"
                 stroke-width="1.13581"
                 stroke-opacity="1.000"
                 stroke-linecap="round"
                 stroke-linejoin="round"
                 d="m 287.22552,254.41621 c -1.96701,1.3677 -2.44411,2.81438 -2.90404,4.15989 -0.82511,2.41383 -0.43212,4.53679 -0.22308,5.54093 3.14839,-1.53039 6.51342,-2.48739 9.61653,-4.07835 2.35965,-1.20979 4.74501,-2.44587 6.71674,-4.24545 0.73622,-0.6872 1.2424,-1.03863 1.35598,-2.11052 -0.27735,-1.10561 -2.08476,-1.37483 -2.69057,-0.94449 -1.15396,0.8701 -1.53238,2.52975 -2.38065,3.6915 -0.7832,-1.27555 -4.42932,-4.55273 -9.49091,-2.01351 z"
                 style="fill:#57c3e0;fill-opacity:1;stroke:#000000;stroke-opacity:1"
                 sodipodi:nodetypes="cscsccccc"
                 inkscape:label="cap" /></g></g></g></g></g></g></svg>
