<?xml version="1.0" encoding="UTF-8" standalone="no"?>
<svg
   width="615"
   height="232"
   viewBox="0 0 615 232"
   fill="none"
   version="1.1"
   id="svg4"
   sodipodi:docname="note_logo.svg"
   inkscape:version="1.3.2 (091e20e, 2023-11-25, custom)"
   inkscape:export-filename="note_logo.svg"
   inkscape:export-xdpi="96"
   inkscape:export-ydpi="96"
   xmlns:inkscape="http://www.inkscape.org/namespaces/inkscape"
   xmlns:sodipodi="http://sodipodi.sourceforge.net/DTD/sodipodi-0.dtd"
   xmlns="http://www.w3.org/2000/svg"
   xmlns:svg="http://www.w3.org/2000/svg">
  <sodipodi:namedview
     id="namedview4"
     pagecolor="#ffffff"
     bordercolor="#000000"
     borderopacity="0.25"
     inkscape:showpageshadow="2"
     inkscape:pageopacity="0.0"
     inkscape:pagecheckerboard="0"
     inkscape:deskcolor="#d1d1d1"
     inkscape:export-bgcolor="#ffffffff"
     inkscape:zoom="0.799187"
     inkscape:cx="289.04374"
     inkscape:cy="180.18311"
     inkscape:window-width="1920"
     inkscape:window-height="991"
     inkscape:window-x="-9"
     inkscape:window-y="-9"
     inkscape:window-maximized="1"
     inkscape:current-layer="svg4" />
  <defs
     id="defs4">
    <clipPath
       id="clip0_1_16">
      <rect
         width="614.1"
         height="231.6"
         fill="white"
         id="rect4" />
    </clipPath>
  </defs>
  <rect
     style="fill:none;stroke-width:8"
     id="rect1"
     width="111.48261"
     height="76.976089"
     x="-11.502174"
     y="-207.92392" />
  <rect
     style="fill:#ffffff;stroke-width:110.402"
     id="rect2"
     width="615"
     height="232"
     x="0"
     y="0" />
  <g
     clip-path="url(#clip0_1_16)"
     id="g4">
    <path
       d="M129.6 69.1C111.6 68.6 86.4 69.6 68.1 69.6V163.2H94.3V92.4C94.3 92.4 117.6 91.6 126 92.6C133.9 93.5 136.8 98.4 137.1 108.6C137.3 120.2 137.1 126.3 137.1 163.2H163.3C163.3 163.2 163.6 121 163.3 106.3C162.9 80.2 153.8 69.7 129.6 69.1Z"
       fill="black"
       id="path1" />
    <path
       d="M250.8 68.8C224.9 68.8 203.8 90 203.8 116.1C203.8 142.2 224.9 163.4 250.8 163.4C276.7 163.4 297.8 142.2 297.8 116.1C297.8 90 276.7 68.8 250.8 68.8ZM250.8 140.8C237.2 140.8 226.2 129.7 226.2 116C226.2 102.3 237.2 91.2 250.8 91.2C264.4 91.2 275.4 102.3 275.4 116C275.4 129.8 264.4 140.8 250.8 140.8Z"
       fill="black"
       id="path2" />
    <path
       d="M545.4 116.1C545.4 90 524.3 68.8 498.4 68.8C472.5 68.8 451.4 90 451.4 116.1C451.4 131.4 458.4 144.5 469.3 153.2C476.9 159.2 487.5 163.4 501.7 163.4C508.6 163.4 526.5 161.5 539.4 147.2L528.8 133C524.3 137 513 142.6 504 142.6C492.6 142.6 485.7 140.4 480.7 135.7C477.6 132.9 475.4 128.6 474.4 123.3H544.7C545.1 120.9 545.4 118.6 545.4 116.1ZM474.6 107.5C477.2 96.4 485 88.2 498.3 88.2C512.2 88.2 519.5 97 521.9 107.5H474.6Z"
       fill="black"
       id="path3" />
    <path
       d="M386.8 60.1H362.3V86.4H337.1V109.4H362.3V136.7H386.8V109.4H412V86.4H386.8V60.1Z"
       fill="black"
       id="path4" />
  </g>
</svg>
