<?xml version="1.0" encoding="UTF-8" standalone="no"?>
<svg
   fill="#ffffff"
   viewBox="0 0 24 24"
   width="24"
   height="24"
   version="1.1"
   id="svg1"
   sodipodi:docname="x_white.svg"
   inkscape:version="1.3.2 (091e20e, 2023-11-25, custom)"
   xmlns:inkscape="http://www.inkscape.org/namespaces/inkscape"
   xmlns:sodipodi="http://sodipodi.sourceforge.net/DTD/sodipodi-0.dtd"
   xmlns="http://www.w3.org/2000/svg"
   xmlns:svg="http://www.w3.org/2000/svg">
  <defs
     id="defs1" />
  <sodipodi:namedview
     id="namedview1"
     pagecolor="#ffffff"
     bordercolor="#000000"
     borderopacity="0.25"
     inkscape:showpageshadow="2"
     inkscape:pageopacity="0.0"
     inkscape:pagecheckerboard="0"
     inkscape:deskcolor="#d1d1d1"
     inkscape:zoom="8.5842763"
     inkscape:cx="2.7375633"
     inkscape:cy="20.153126"
     inkscape:window-width="1920"
     inkscape:window-height="991"
     inkscape:window-x="-9"
     inkscape:window-y="-9"
     inkscape:window-maximized="1"
     inkscape:current-layer="svg1" />
  <path
     d="M 3.9999992,5.0000001e-8 C 1.790856,5.0000001e-8 0,1.7908573 0,4.0000001 V 20 c 0,2.209143 1.790856,4 3.9999992,4 H 20 c 2.209143,0 4,-1.790857 4,-4 V 4.0000001 c 0,-2.2091428 -1.790858,-4.00000005 -4,-4.00000005 z m 1.191965,5.14285725 h 4.5357143 l 3.2209825,4.5770093 3.908482,-4.5770093 h 1.428571 l -4.691965,5.4933037 5.785715,8.220982 H 14.844866 L 11.107143,13.546875 6.571428,18.857143 H 5.1428568 L 10.462054,12.630581 Z M 7.3794634,6.2857146 15.440848,17.714286 h 1.751117 L 9.1305803,6.2857146 Z"
     id="path1"
     style="fill:#ffffff;stroke-width:0.571429" />
</svg>
